<?xml version="1.0" encoding="utf-8"?>
<!-- Generator: Adobe Illustrator 21.1.0, SVG Export Plug-In . SVG Version: 6.00 Build 0)  -->
<svg version="1.1" id="Layer_1" xmlns="http://www.w3.org/2000/svg" xmlns:xlink="http://www.w3.org/1999/xlink" x="0px" y="0px"
	 viewBox="0 0 55 55" style="enable-background:new 0 0 55 55;" xml:space="preserve">
<style type="text/css">
	.st0{fill:#EC1C24;}
	.st1{fill:none;stroke:#231F20;stroke-width:5.0025;stroke-miterlimit:10;}
	.st2{fill:#FFFFFF;}
</style>
<g>
	<g>
		<path class="st0" d="M37.6,40.2h-5.8V9h4.3c1.1,4.3,4.5,5.3,8.6,5.4v4.1h-7C37.6,18.6,37.6,40.2,37.6,40.2z"/>
	</g>
	<path class="st1" d="M21.4,27.6"/>
	<path class="st1" d="M26.6,17"/>
	<path class="st2" d="M7.2,45.1l0.9-2.3h0.4l-1.3,3.3l-1.3-3.3h0.4L7.2,45.1z"/>
	<path class="st2" d="M10.9,45.8h-0.3v-3.1h0.3V45.8z"/>
	<path class="st2" d="M13.6,45.8h-0.3v-3.1h0.5c0.6,0,1.1,0.2,1.1,0.9c0,0.5-0.3,0.8-0.8,0.9l1,1.4h-0.4l-1-1.4h-0.1V45.8z
		 M13.6,44.1L13.6,44.1c0.5,0,0.9-0.1,0.9-0.6S14.1,43,13.7,43h-0.1V44.1z"/>
	<path class="st2" d="M17.9,45.8h-0.3v-2.8h-0.7v-0.3h1.9v0.3H18L17.9,45.8L17.9,45.8z"/>
	<path class="st2" d="M20.5,44.5c0,0.2,0,0.5,0.2,0.7c0.2,0.2,0.4,0.3,0.6,0.3s0.5-0.1,0.6-0.2c0.2-0.2,0.2-0.5,0.2-0.7v-1.9h0.3
		v1.9c0,0.3,0,0.6-0.2,0.9c-0.2,0.2-0.5,0.3-0.8,0.3c-0.3,0-0.6-0.1-0.8-0.3c-0.4-0.3-0.4-0.6-0.4-1v-1.9h0.3V44.5z"/>
	<path class="st2" d="M24.2,44.9l-0.4,0.9h-0.4l1.5-3.2l1.4,3.2h-0.3l-0.4-0.9H24.2z M24.8,43.4l-0.6,1.2h1.1L24.8,43.4z"/>
	<path class="st2" d="M28.1,45.5H29v0.3h-1.2v-3.1h0.3V45.5z"/>
	<path class="st2" d="M34.8,44.3c0,0.9-0.7,1.6-1.6,1.6s-1.6-0.7-1.6-1.6s0.7-1.6,1.6-1.6S34.8,43.4,34.8,44.3z M31.9,44.3
		c0,0.7,0.6,1.3,1.3,1.3c0.7,0,1.3-0.6,1.3-1.3c0-0.7-0.6-1.3-1.3-1.3C32.4,43,31.9,43.5,31.9,44.3z"/>
	<path class="st2" d="M37.1,42.6l2.4,2.5v-2.4h0.3v3.2l-2.4-2.5v2.4h-0.3V42.6z"/>
	<path class="st2" d="M43.1,42.7h1.6V43h-1.3v0.9h1.2v0.3h-1.2v1.2h1.3v0.3h-1.6V42.7z"/>
	<g>
		<path class="st2" d="M45.9,41.1c0-0.9,0.7-1.6,1.6-1.6s1.6,0.7,1.6,1.6s-0.7,1.6-1.6,1.6C46.6,42.7,45.9,42,45.9,41.1z M48.9,41.1
			c0-0.7-0.6-1.4-1.4-1.4s-1.4,0.6-1.4,1.4c0,0.7,0.6,1.4,1.4,1.4S48.9,41.8,48.9,41.1z M48.3,42H48l-0.6-0.8h-0.3V42h-0.2v-1.8h0.7
			c0.3,0,0.6,0.1,0.6,0.5c0,0.3-0.2,0.5-0.6,0.5L48.3,42z M47.4,40.9c0.2,0,0.6,0.1,0.6-0.2c0-0.2-0.2-0.2-0.4-0.2h-0.5v0.5H47.4z"
			/>
	</g>
	<g>
		<polygon class="st2" points="30.2,9 18.2,34.5 18.7,35.4 32.5,9 		"/>
		<polygon class="st2" points="35,9 20.5,39.2 20.9,40.1 36,9 		"/>
		<polygon class="st2" points="32.6,9 19.4,37 19.6,37.6 35,9 		"/>
		<polygon class="st2" points="30.2,9 29.5,9 25.4,18 		"/>
		<polygon class="st2" points="20.5,27 12.4,9 5.9,9 17.5,32.9 		"/>
	</g>
</g>
</svg>
