<?xml version="1.0" encoding="utf-8"?>
<!-- Generator: Adobe Illustrator 15.1.0, SVG Export Plug-In . SVG Version: 6.00 Build 0)  -->
<!DOCTYPE svg PUBLIC "-//W3C//DTD SVG 1.1//EN" "http://www.w3.org/Graphics/SVG/1.1/DTD/svg11.dtd">
<svg version="1.1" id="Layer_1" xmlns="http://www.w3.org/2000/svg" xmlns:xlink="http://www.w3.org/1999/xlink" x="0px" y="0px"
	 width="81.21px" height="69.5px" viewBox="184.406 157.816 81.21 69.5" enable-background="new 184.406 157.816 81.21 69.5"
	 xml:space="preserve">
<g>
	<g>
		<path fill="#EC1C24" d="M242.183,213.757h-9.438v-50.469h6.947c1.836,6.948,7.344,8.652,13.896,8.782v6.685h-11.402v35.002
			H242.183z"/>
	</g>
	<path fill="none" stroke="#231F20" stroke-width="0.7711" stroke-miterlimit="10" d="M215.968,193.307"/>
	<path fill="none" stroke="#231F20" stroke-width="0.7711" stroke-miterlimit="10" d="M224.358,176.134"/>
	<path fill="#FFFFFF" d="M192.897,221.62l1.442-3.8h0.655l-2.098,5.374l-2.097-5.374h0.654L192.897,221.62z"/>
	<path fill="#FFFFFF" d="M198.927,222.802h-0.524v-4.981h0.524V222.802z"/>
	<path fill="#FFFFFF" d="M203.385,222.802h-0.525v-4.981h0.787c0.917,0,1.834,0.263,1.834,1.441c0,0.787-0.523,1.311-1.309,1.442
		l1.573,2.229h-0.656l-1.573-2.229h-0.131L203.385,222.802L203.385,222.802z M203.385,220.049h0.13c0.657,0,1.311-0.132,1.311-0.917
		c0-0.787-0.654-0.918-1.311-0.918h-0.13V220.049z"/>
	<path fill="#FFFFFF" d="M210.332,222.802h-0.525v-4.459h-1.179v-0.523h3.014v0.523h-1.179v4.459H210.332z"/>
	<path fill="#FFFFFF" d="M214.526,220.704c0,0.393,0,0.786,0.262,1.18c0.264,0.261,0.657,0.524,1.05,0.524
		c0.392,0,0.786-0.132,1.049-0.392c0.263-0.264,0.263-0.788,0.263-1.183v-3.014h0.524v3.146c0,0.523,0,1.049-0.393,1.44
		c-0.392,0.395-0.786,0.525-1.312,0.525c-0.524,0-0.917-0.131-1.309-0.525c-0.657-0.524-0.657-0.917-0.657-1.574v-3.145h0.524
		L214.526,220.704L214.526,220.704z"/>
	<path fill="#FFFFFF" d="M220.426,221.358l-0.655,1.443h-0.657l2.36-5.244l2.228,5.244h-0.525l-0.657-1.443H220.426z
		 M221.473,218.868l-0.918,1.966h1.704L221.473,218.868z"/>
	<path fill="#FFFFFF" d="M226.716,222.276h1.442v0.527h-1.964v-4.982h0.522V222.276L226.716,222.276z"/>
	<path fill="#FFFFFF" d="M237.597,220.312c0,1.44-1.182,2.621-2.623,2.621s-2.621-1.181-2.621-2.621c0-1.443,1.18-2.623,2.621-2.623
		S237.597,218.868,237.597,220.312z M232.879,220.312c0,1.179,0.916,2.096,2.096,2.096c1.182,0,2.1-0.917,2.1-2.096
		c0-1.181-0.918-2.1-2.1-2.1C233.797,218.212,232.879,219.131,232.879,220.312z"/>
	<path fill="#FFFFFF" d="M241.4,217.558l3.932,4.065v-3.934h0.525v5.243l-3.934-4.064v3.934H241.4V217.558z"/>
	<path fill="#FFFFFF" d="M250.969,217.688h2.621v0.523h-2.098v1.443h1.967v0.525h-1.967v1.966h2.098v0.527h-2.621V217.688z"/>
	<g>
		<path fill="#FFFFFF" d="M255.554,215.197c0-1.44,1.182-2.622,2.623-2.622c1.443,0,2.623,1.182,2.623,2.622
			c0,1.442-1.18,2.623-2.623,2.623C256.736,217.82,255.554,216.64,255.554,215.197z M260.408,215.197c0-1.18-1.049-2.228-2.23-2.228
			c-1.18,0-2.23,0.916-2.23,2.228c0,1.181,1.051,2.229,2.23,2.229C259.359,217.426,260.408,216.378,260.408,215.197z M259.49,216.64
			h-0.525l-0.916-1.311h-0.525v1.311h-0.262v-2.883h1.178c0.527,0,1.051,0.13,1.051,0.786c0,0.523-0.395,0.786-0.918,0.786
			L259.49,216.64z M258.049,214.805c0.391,0,0.916,0.132,0.916-0.394c0-0.262-0.393-0.394-0.654-0.394h-0.787v0.787H258.049z"/>
	</g>
	<g>
		<polygon fill="#FFFFFF" points="230.125,163.288 210.725,204.449 211.511,206.022 233.926,163.288 		"/>
		<polygon fill="#FFFFFF" points="237.859,163.288 214.395,212.052 215.052,213.493 239.564,163.288 		"/>
		<polygon fill="#FFFFFF" points="234.058,163.288 212.69,208.514 213.084,209.431 237.859,163.288 		"/>
		<polygon fill="#FFFFFF" points="230.125,163.288 229.078,163.288 222.391,177.838 		"/>
		<polygon fill="#FFFFFF" points="214.526,192.39 201.286,163.288 190.8,163.288 209.545,201.959 		"/>
	</g>
</g>
</svg>
