<?xml version="1.0" encoding="utf-8"?>
<!-- Generator: Adobe Illustrator 15.1.0, SVG Export Plug-In . SVG Version: 6.00 Build 0)  -->
<!DOCTYPE svg PUBLIC "-//W3C//DTD SVG 1.1//EN" "http://www.w3.org/Graphics/SVG/1.1/DTD/svg11.dtd">
<svg version="1.1" id="Layer_1" xmlns="http://www.w3.org/2000/svg" xmlns:xlink="http://www.w3.org/1999/xlink" x="0px" y="0px"
	 width="81.21px" height="69.5px" viewBox="0 0 81.21 69.5" enable-background="new 0 0 81.21 69.5" xml:space="preserve">
<g>
	<g>
		<path fill="#EC1C24" d="M60.849,59.984h-9.438V9.516h6.946c1.836,6.948,7.345,8.651,13.896,8.782v6.685H60.852v35.002H60.849
			L60.849,59.984z"/>
	</g>
	<path fill="none" stroke="#231F20" stroke-width="0.7711" stroke-miterlimit="10" d="M34.634,39.534"/>
	<path fill="none" stroke="#231F20" stroke-width="0.7711" stroke-miterlimit="10" d="M43.024,22.361"/>
	<g>
		<polygon fill="#FFFFFF" points="48.791,9.516 29.391,50.677 30.177,52.249 52.591,9.516 		"/>
		<polygon fill="#FFFFFF" points="56.525,9.516 33.061,58.279 33.718,59.721 58.23,9.516 		"/>
		<polygon fill="#FFFFFF" points="52.724,9.516 31.356,54.741 31.75,55.659 56.525,9.516 		"/>
		<polygon fill="#FFFFFF" points="48.791,9.516 47.744,9.516 41.057,24.065 		"/>
		<polygon fill="#FFFFFF" points="33.192,38.618 19.953,9.516 9.466,9.516 28.21,48.187 		"/>
	</g>
</g>
</svg>
