<?xml version="1.0" encoding="utf-8"?>
<!-- Generator: Adobe Illustrator 15.1.0, SVG Export Plug-In . SVG Version: 6.00 Build 0)  -->
<!DOCTYPE svg PUBLIC "-//W3C//DTD SVG 1.1//EN" "http://www.w3.org/Graphics/SVG/1.1/DTD/svg11.dtd">
<svg version="1.1" id="Layer_1" xmlns="http://www.w3.org/2000/svg" xmlns:xlink="http://www.w3.org/1999/xlink" x="0px" y="0px"
	 width="81.21px" height="69.5px" viewBox="0 0 81.21 69.5" enable-background="new 0 0 81.21 69.5" xml:space="preserve">
<g>
	<g>
		<path fill="#EC1C24" d="M258.567,234.273h-18.875V133.336h13.893c3.672,13.896,14.689,17.303,27.791,17.564v13.369h-22.803v70.004
			H258.567L258.567,234.273z"/>
	</g>
	<path fill="none" stroke="#231F20" stroke-width="1.5422" stroke-miterlimit="10" d="M206.137,193.373"/>
	<path fill="none" stroke="#231F20" stroke-width="1.5422" stroke-miterlimit="10" d="M222.917,159.027"/>
	<path fill="#FFFFFF" d="M159.995,250l2.885-7.6h1.309l-4.195,10.746l-4.195-10.746h1.309L159.995,250z"/>
	<path fill="#FFFFFF" d="M172.055,252.363h-1.049V242.4h1.049V252.363z"/>
	<path fill="#FFFFFF" d="M180.969,252.363h-1.049V242.4h1.574c1.834,0,3.668,0.527,3.668,2.883c0,1.574-1.045,2.623-2.619,2.885
		l3.148,4.459h-1.312l-3.146-4.459h-0.264V252.363L180.969,252.363z M180.969,246.857h0.262c1.312,0,2.621-0.264,2.621-1.834
		c0-1.574-1.309-1.836-2.621-1.836h-0.262V246.857z"/>
	<path fill="#FFFFFF" d="M194.864,252.363h-1.049v-8.918h-2.357V242.4h6.027v1.045h-2.359v8.918H194.864z"/>
	<path fill="#FFFFFF" d="M203.252,248.168c0,0.787,0,1.572,0.525,2.359c0.527,0.521,1.312,1.049,2.098,1.049s1.574-0.266,2.1-0.785
		c0.525-0.527,0.525-1.574,0.525-2.365v-6.029h1.047v6.293c0,1.047,0,2.098-0.785,2.881c-0.783,0.789-1.57,1.049-2.623,1.049
		c-1.049,0-1.834-0.262-2.619-1.049c-1.312-1.049-1.312-1.834-1.312-3.148v-6.291h1.047L203.252,248.168L203.252,248.168z"/>
	<path fill="#FFFFFF" d="M215.051,249.475l-1.309,2.887h-1.314l4.721-10.488l4.457,10.488h-1.051l-1.314-2.887H215.051z
		 M217.147,244.496l-1.836,3.932h3.408L217.147,244.496z"/>
	<path fill="#FFFFFF" d="M227.633,251.311h2.883v1.055h-3.928V242.4h1.045V251.311L227.633,251.311z"/>
	<path fill="#FFFFFF" d="M249.395,247.385c0,2.879-2.363,5.242-5.246,5.242s-5.242-2.363-5.242-5.242
		c0-2.887,2.359-5.246,5.242-5.246S249.395,244.496,249.395,247.385z M239.958,247.385c0,2.357,1.832,4.191,4.193,4.191
		c2.365,0,4.201-1.834,4.201-4.191c0-2.363-1.836-4.201-4.201-4.201C241.793,243.184,239.958,245.021,239.958,247.385z"/>
	<path fill="#FFFFFF" d="M257,241.877l7.863,8.129v-7.867h1.051v10.484l-7.867-8.127v7.867H257V241.877z"/>
	<path fill="#FFFFFF" d="M276.139,242.135h5.24v1.047h-4.195v2.887h3.934v1.049h-3.934v3.932h4.195v1.055h-5.24V242.135z"/>
	<g>
		<path fill="#FFFFFF" d="M285.309,237.154c0-2.881,2.363-5.244,5.246-5.244c2.887,0,5.246,2.363,5.246,5.244
			c0,2.883-2.359,5.246-5.246,5.246C287.672,242.4,285.309,240.041,285.309,237.154z M295.016,237.154
			c0-2.359-2.098-4.457-4.459-4.457s-4.461,1.832-4.461,4.457c0,2.361,2.104,4.457,4.461,4.457
			C292.918,241.611,295.016,239.516,295.016,237.154z M293.18,240.041h-1.051l-1.832-2.623h-1.049v2.623h-0.523v-5.768h2.355
			c1.055,0,2.104,0.26,2.104,1.572c0,1.047-0.791,1.572-1.836,1.572L293.18,240.041z M290.297,236.369
			c0.783,0,1.832,0.266,1.832-0.787c0-0.525-0.785-0.787-1.307-0.787h-1.574v1.574H290.297L290.297,236.369z"/>
	</g>
	<g>
		<polygon fill="#FFFFFF" points="234.45,133.336 195.651,215.658 197.223,218.803 242.051,133.336 		"/>
		<polygon fill="#FFFFFF" points="249.918,133.336 202.991,230.863 204.305,233.746 253.329,133.336 		"/>
		<polygon fill="#FFFFFF" points="242.317,133.336 199.581,223.787 200.368,225.623 249.918,133.336 		"/>
		<polygon fill="#FFFFFF" points="234.45,133.336 232.356,133.336 218.983,162.436 		"/>
		<polygon fill="#FFFFFF" points="203.252,191.541 176.774,133.336 155.801,133.336 193.29,210.678 		"/>
	</g>
</g>
</svg>
